<svg width="72" height="72" viewBox="0 0 72 72" fill="none" xmlns="http://www.w3.org/2000/svg">
<path d="M21.8022 53.7734C17.3652 53.7764 13.0872 52.1218 9.80759 49.1344C6.52802 46.147 4.4836 42.0424 4.07546 37.6259C3.66732 33.2094 4.92493 28.7999 7.60154 25.2625C10.2781 21.7251 14.1805 19.3152 18.543 18.5056C19.3093 14.4285 21.4768 10.7473 24.6708 8.09851C27.8647 5.44974 31.8843 4 36.0344 4C40.1844 4 44.204 5.44974 47.398 8.09851C50.5919 10.7473 52.7595 14.4285 53.5257 18.5056C57.8736 19.3317 61.7576 21.7474 64.4199 25.2815C67.0821 28.8155 68.3316 33.2143 67.9245 37.6196C67.5174 42.0248 65.4829 46.1204 62.2181 49.1071C58.9532 52.0939 54.6922 53.7575 50.2665 53.7734M25.3602 35.9901L36.0344 25.3202M36.0344 25.3202L46.7085 35.9901M36.0344 25.3202V68" stroke="black" stroke-width="8" stroke-linecap="round" stroke-linejoin="round"/>
</svg>
